<svg height="512pt" viewBox="0 0 512 512" width="512pt" xmlns="http://www.w3.org/2000/svg"><path d="m512 256c0 141.386719-114.613281 256-256 256s-256-114.613281-256-256 114.613281-256 256-256 256 114.613281 256 256zm0 0" fill="#2d5396"/><path d="m512 256c0-20.96875-2.539062-41.339844-7.292969-60.84375l-77.148437-77.144531-343.816406 236.0625 157.496093 157.492187c4.886719.277344 9.804688.433594 14.761719.433594 141.386719 0 256-114.613281 256-256zm0 0" fill="#1b3b6b"/><path d="m211.5 346.347656h89v73h-89zm0 0" fill="#abddff"/><path d="m255.714844 346.347656h44.785156v73h-44.785156zm0 0" fill="#78beff"/><path d="m409.972656 362.519531h-307.945312c-13.269532 0-24.027344-10.757812-24.027344-24.027343v-204.117188c0-13.269531 10.757812-24.027344 24.027344-24.027344h307.945312c13.269532 0 24.027344 10.757813 24.027344 24.027344v204.117188c0 13.269531-10.757812 24.027343-24.027344 24.027343zm0 0" fill="#fff"/><path d="m409.972656 110.347656h-154.257812v252.171875h154.257812c13.269532 0 24.027344-10.757812 24.027344-24.027343v-204.117188c0-13.269531-10.757812-24.027344-24.027344-24.027344zm0 0" fill="#dbeeff"/><path d="m96.5 126.347656h319v182.847656h-319zm0 0" fill="#ff583e"/><path d="m255.714844 126.347656h159.785156v182.847656h-159.785156zm0 0" fill="#f92814"/><path d="m198 404.347656h116v27h-116zm0 0" fill="#fff"/><path d="m255.714844 404.347656h58.285156v27h-58.285156zm0 0" fill="#dbeeff"/><path d="m256 139.835938c-53.8125 0-100.449219 30.707031-123.347656 75.554687 22.898437 44.84375 69.535156 75.554687 123.347656 75.554687s100.449219-30.707031 123.347656-75.554687c-22.898437-44.847656-69.535156-75.554687-123.347656-75.554687zm0 0" fill="#fff"/><path d="m256 139.835938c-.097656 0-.191406.003906-.285156.003906v151.097656c.09375 0 .1875.003906.285156.003906 53.8125 0 100.449219-30.707031 123.347656-75.550781-22.898437-44.847656-69.535156-75.554687-123.347656-75.554687zm0 0" fill="#dbeeff"/><path d="m324.402344 215.390625c0 37.773437-30.625 68.398437-68.402344 68.398437s-68.402344-30.625-68.402344-68.398437c0-37.777344 30.625-68.402344 68.402344-68.402344s68.402344 30.625 68.402344 68.402344zm0 0" fill="#abddff"/><path d="m256 146.988281c-.097656 0-.191406.007813-.285156.007813v136.785156c.09375 0 .1875.007812.285156.007812 37.777344 0 68.402344-30.625 68.402344-68.398437 0-37.777344-30.625-68.402344-68.402344-68.402344zm0 0" fill="#78beff"/><path d="m297.566406 215.390625c0 22.957031-18.609375 41.566406-41.566406 41.566406s-41.566406-18.609375-41.566406-41.566406c0-22.960937 18.609375-41.570313 41.566406-41.570313s41.566406 18.609376 41.566406 41.570313zm0 0" fill="#2d5396"/><path d="m256 173.820312c-.097656 0-.191406.007813-.285156.007813v83.121094c.09375 0 .1875.007812.285156.007812 22.957031 0 41.566406-18.609375 41.566406-41.566406s-18.609375-41.570313-41.566406-41.570313zm0 0" fill="#1b3b6b"/></svg>